Coordinates
version=1
nRows=8
nColumns=60
inDegrees=yes

Units are S.I. units (second, meters, Newtons, ...)
If the header above contains a line with 'inDegrees', this indicates whether rotational values are in degrees (yes) or radians (no).

endheader
time	pelvis_tilt	pelvis_list	pelvis_rotation	pelvis_tx	pelvis_ty	pelvis_tz	hip_flexion_r	hip_adduction_r	hip_rotation_r	knee_angle_r_beta	knee_angle_r	ankle_angle_r	subtalar_angle_r	mtp_angle_r	hip_flexion_l	hip_adduction_l	hip_rotation_l	knee_angle_l_beta	knee_angle_l	ankle_angle_l	subtalar_angle_l	mtp_angle_l	L5_S1_Flex_Ext	L5_S1_Lat_Bending	L5_S1_axial_rotation	L4_L5_Flex_Ext	L4_L5_Lat_Bending	L4_L5_axial_rotation	L3_L4_Flex_Ext	L3_L4_Lat_Bending	L3_L4_axial_rotation	L2_L3_Flex_Ext	L2_L3_Lat_Bending	L2_L3_axial_rotation	L1_L2_Flex_Ext	L1_L2_Lat_Bending	L1_L2_axial_rotation	L1_T12_Flex_Ext	L1_T12_Lat_Bending	L1_T12_axial_rotation	Abs_r3	Abs_r2	Abs_r1	Abs_t1	Abs_t2	arm_flex_r	arm_add_r	arm_rot_r	elbow_flex_r	pro_sup_r	wrist_flex_r	wrist_dev_r	arm_flex_l	arm_add_l	arm_rot_l	elbow_flex_l	pro_sup_l	wrist_flex_l	wrist_dev_l
      5.50000000	      0.25101373	     24.80371866	     92.17396564	      0.39576379	      0.94801440	      0.18382833	    -27.14766002	     -3.71477156	     -6.29411702	      0.16627571	     -9.52689624	     15.24978351	      0.00000000	      0.00000000	    -26.16535078	     -6.40692059	     -6.22092803	      0.17289533	     -9.90617265	     17.56977147	      0.00000000	      0.00000000	     -5.49809678	      0.24280753	     -0.06060137	    -10.21051552	      0.32293401	     -0.06438896	     -9.03282319	      0.59036222	     -0.06438896	     -6.28377480	      0.59036222	     -0.05302620	     -5.10553267	      0.49513311	     -0.04923862	     -3.14161250	      0.37610886	     -0.04545103	    -39.27235546	      2.74668730	     -0.33704666	      0.00000000	      0.00000000	     12.99778677	    -11.20707034	     13.95889757	     17.62584474	    108.74949063	     12.79543346	     -2.03986479	     15.78429787	    -11.12166686	     33.25753109	     18.28851094	     94.58336625	     16.22026771	     -7.65561486
      5.51000000	      0.25211547	     24.83558265	     92.18649289	      0.39572843	      0.94802144	      0.18379121	    -27.18359867	     -3.70723817	     -6.30140645	      0.16642130	     -9.53523807	     15.25617711	      0.00000000	      0.00000000	    -26.20464522	     -6.41402812	     -6.21131487	      0.17275121	     -9.89791545	     17.57425326	      0.00000000	      0.00000000	     -5.50316388	      0.24311183	     -0.06795945	    -10.21992564	      0.32333874	     -0.07220692	     -9.04114794	      0.59110211	     -0.07220692	     -6.28956600	      0.59110211	     -0.05946452	     -5.11023798	      0.49575365	     -0.05521705	     -3.14450784	      0.37658023	     -0.05096959	    -39.30854927	      2.75012968	     -0.37797008	      0.00000000	      0.00000000	     13.05133075	    -11.34255064	     15.34905652	     17.62388362	    107.19786817	     12.56445454	     -2.00451694	     15.80893094	    -11.19192911	     33.85261981	     18.33970163	     93.95058985	     16.21889982	     -7.68123692
      5.52000000	      0.26297494	     24.82997885	     92.19110126	      0.39575636	      0.94802115	      0.18372283	    -27.17420175	     -3.68793232	     -6.29500999	      0.16673294	     -9.55309390	     15.27932026	      0.00000000	      0.00000000	    -26.20354102	     -6.43041179	     -6.24005709	      0.17262026	     -9.89041258	     17.59019221	      0.00000000	      0.00000000	     -5.50638390	      0.24577856	     -0.06306413	    -10.22590553	      0.32688548	     -0.06700564	     -9.04643810	      0.59758599	     -0.06700564	     -6.29324615	      0.59758599	     -0.05518112	     -5.11322809	      0.50119164	     -0.05123961	     -3.14634776	      0.38071099	     -0.04729810	    -39.33154953	      2.78029623	     -0.35074380	      0.00000000	      0.00000000	     12.99434987	    -11.22451159	     13.83759734	     17.66377489	    108.80018703	     13.06544833	     -2.01837869	     15.82344849	    -11.12463083	     33.34326933	     18.30652632	     94.75268789	     16.25912100	     -7.61497514
      5.53000000	      0.23234566	     24.84134414	     92.19552086	      0.39573561	      0.94801546	      0.18368219	    -27.20319188	     -3.72063210	     -6.27176089	      0.16632237	     -9.52957006	     15.27082725	      0.00000000	      0.00000000	    -26.21082942	     -6.39838873	     -6.19500786	      0.17310488	     -9.91817922	     17.56704768	      0.00000000	      0.00000000	     -5.50600697	      0.24153706	     -0.06622370	    -10.22520555	      0.32124429	     -0.07036268	     -9.04581886	      0.58727321	     -0.07036268	     -6.29281537	      0.58727321	     -0.05794573	     -5.11287808	      0.49254237	     -0.05380675	     -3.14613239	      0.37414091	     -0.04966777	    -39.32885722	      2.73231553	     -0.36831633	      0.00000000	      0.00000000	     13.06543789	    -11.32694149	     15.21589160	     17.56722633	    107.10677706	     12.83461045	     -1.95223549	     15.84665835	    -11.17537428	     33.92898316	     18.30818833	     93.83363728	     16.23093600	     -7.65373550
      5.54000000	      0.23203367	     24.84605995	     92.19045128	      0.39569878	      0.94802222	      0.18358442	    -27.20578556	     -3.72811439	     -6.26290912	      0.16646809	     -9.53791889	     15.27325682	      0.00000000	      0.00000000	    -26.23861906	     -6.38809039	     -6.19276622	      0.17279140	     -9.90021814	     17.56098412	      0.00000000	      0.00000000	     -5.50657350	      0.24077644	     -0.07992453	    -10.22625764	      0.32023267	     -0.08491981	     -9.04674960	      0.58542385	     -0.08491981	     -6.29346285	      0.58542385	     -0.06993396	     -5.11340415	      0.49099133	     -0.06493868	     -3.14645610	      0.37296271	     -0.05994340	    -39.33290383	      2.72371130	     -0.44451625	      0.00000000	      0.00000000	     13.08819510	    -11.34516893	     15.46969849	     17.57978730	    107.08219672	     12.61336823	     -1.95143238	     15.80683156	    -11.18768066	     33.96590451	     18.30301582	     93.39626690	     16.20218364	     -7.67658123
      5.55000000	      0.21751875	     24.82303530	     92.19821460	      0.39572266	      0.94800088	      0.18351127	    -27.18323381	     -3.73818898	     -6.27044945	      0.16687414	     -9.56118416	     15.29252856	      0.00000000	      0.00000000	    -26.22170681	     -6.37769792	     -6.19324005	      0.17239984	     -9.87778305	     17.56872384	      0.00000000	      0.00000000	     -5.50579339	      0.24248318	     -0.05986967	    -10.22480890	      0.32250263	     -0.06361152	     -9.04546796	      0.58957360	     -0.06361152	     -6.29257126	      0.58957360	     -0.05238596	     -5.11267974	      0.49447170	     -0.04864410	     -3.14601034	      0.37560645	     -0.04490225	    -39.32733159	      2.74301822	     -0.33297712	      0.00000000	      0.00000000	     12.97309093	    -11.21697059	     13.77345196	     17.61751862	    108.81901283	     12.95993160	     -2.19736092	     15.85174865	    -11.06856063	     33.34119728	     18.23001067	     94.66819871	     16.16227829	     -7.69151804
      5.56000000	      0.22452724	     24.82615953	     92.17153498	      0.39575080	      0.94802254	      0.18344813	    -27.18538317	     -3.74297863	     -6.24245017	      0.16694392	     -9.56518197	     15.28751645	      0.00000000	      0.00000000	    -26.24486730	     -6.37228199	     -6.20505248	      0.17207123	     -9.85895511	     17.55263729	      0.00000000	      0.00000000	     -5.50581713	      0.24234406	     -0.05959047	    -10.22485299	      0.32231760	     -0.06331488	     -9.04550696	      0.58923534	     -0.06331488	     -6.29259840	      0.58923534	     -0.05214167	     -5.11270179	      0.49418800	     -0.04841726	     -3.14602391	      0.37539095	     -0.04469286	    -39.32750116	      2.74144445	     -0.33142434	      0.00000000	      0.00000000	     13.01293208	    -11.27722327	     14.51401862	     17.58923255	    108.03506359	     12.76685296	     -2.19026790	     15.84468887	    -11.05505101	     33.39936426	     18.19732496	     94.29205432	     16.17449006	     -7.70612395
      5.57000000	      0.18914612	     24.81753340	     92.18991453	      0.39574840	      0.94802671	      0.18338679	    -27.18902976	     -3.76500928	     -6.24000316	      0.16666131	     -9.54898939	     15.29348669	      0.00000000	      0.00000000	    -26.23892444	     -6.33750940	     -6.20045823	      0.17193151	     -9.85094988	     17.53816256	      0.00000000	      0.00000000	     -5.50524010	      0.23698608	     -0.06364833	    -10.22378140	      0.31519149	     -0.06762635	     -9.04455897	      0.57620795	     -0.06762635	     -6.29193891	      0.57620795	     -0.05569229	     -5.11216596	      0.48326201	     -0.05171427	     -3.14569419	      0.36709144	     -0.04773625	    -39.32337953	      2.68083392	     -0.35399290	      0.00000000	      0.00000000	     13.03220762	    -11.30398558	     15.16410117	     17.54606963	    107.31501224	     12.59000022	     -2.15448659	     15.88042061	    -11.10634134	     33.71399724	     18.18292877	     94.15546523	     16.18936437	     -7.71030357
